General
Unique ID : 168348648403719580577546155723716462494 (0x7EA6C532C2870C1E037BA147C20E879E)
Complete name : C:UsersRobDocumentsMY WEEK WITH MARILYN (2011) 1080p BRRip [MKV AC3 6ch][RoB]PR3DATOR RGMY WEEK WITH MARILYN (2011) 1080p BRRip [MKV 6ch AC3][RoB]PR3DATOR RG.mkv
Format : Matroska
Format version : Version 2
File size : 2.30 GiB
Duration : 1h 38mn
Overall bit rate : 3 324 Kbps
Writing application : Lavf51.12.1
Writing library : Lavf51.12.1

Video
ID : 1
Format : AVC
Format/Info : Advanced Video Codec
Format profile : Baseline@L4.0
Format settings, CABAC : No
Format settings, ReFrames : 5 frames
Codec ID : V_MPEG4/ISO/AVC
Duration : 1h 38mn
Bit rate : 2 937 Kbps
Width : 1 920 pixels
Height : 816 pixels
Display aspect ratio : 2.35:1
Frame rate mode : Variable
Frame rate : 23.976 fps
Color space : YUV
Chroma subsampling : 4:2:0
Bit depth : 8 bits
Scan type : Progressive
Bits/(Pixel*Frame) : 0.078
Stream size : 2.03 GiB (88%)
Language : English

Audio
ID : 2
Format : AC-3
Format/Info : Audio Coding 3
Mode extension : CM (complete main)
Codec ID : A_AC3
Duration : 1h 38mn
Bit rate mode : Constant
Bit rate : 320 Kbps
Channel(s) : 6 channels
Channel positions : Front: L C R, Side: L R, LFE
Sampling rate : 44.1 KHz
Bit depth : 16 bits
Compression mode : Lossy
Stream size : 226 MiB (10%)
Language : English
 
http://img215.imageshack.us/img215/5696/myweekwithmarilyn201110.jpg
 
http://img593.imageshack.us/img593/5696/myweekwithmarilyn201110.jpg
 
http://img163.imageshack.us/img163/5696/myweekwithmarilyn201110.jpg
 
http://img3.imageshack.us/img3/5696/myweekwithmarilyn201110.jpg
 
http://img835.imageshack.us/img835/5696/myweekwithmarilyn201110.jpg